<svg xmlns="http://www.w3.org/2000/svg" xmlns:xlink="http://www.w3.org/1999/xlink" width="600" zoomAndPan="magnify" viewBox="0 0 450 449.999984" height="600" preserveAspectRatio="xMidYMid meet" version="1.0"><defs><clipPath id="069a3f5527"><path d="M 0 84.011719 L 450 84.011719 L 450 365.988281 L 0 365.988281 Z M 0 84.011719 " clip-rule="nonzero"/></clipPath><clipPath id="1e32b40647"><path d="M 75 84.011719 L 375 84.011719 C 416.421875 84.011719 450 117.589844 450 159.011719 L 450 290.988281 C 450 332.410156 416.421875 365.988281 375 365.988281 L 75 365.988281 C 33.578125 365.988281 0 332.410156 0 290.988281 L 0 159.011719 C 0 117.589844 33.578125 84.011719 75 84.011719 Z M 75 84.011719 " clip-rule="nonzero"/></clipPath><clipPath id="cd8b1edc79"><path d="M 0 0.0117188 L 450 0.0117188 L 450 281.988281 L 0 281.988281 Z M 0 0.0117188 " clip-rule="nonzero"/></clipPath><clipPath id="4c52c6e6dd"><path d="M 75 0.0117188 L 375 0.0117188 C 416.421875 0.0117188 450 33.589844 450 75.011719 L 450 206.988281 C 450 248.410156 416.421875 281.988281 375 281.988281 L 75 281.988281 C 33.578125 281.988281 0 248.410156 0 206.988281 L 0 75.011719 C 0 33.589844 33.578125 0.0117188 75 0.0117188 Z M 75 0.0117188 " clip-rule="nonzero"/></clipPath><clipPath id="ae2ad1e98f"><rect x="0" width="450" y="0" height="282"/></clipPath><clipPath id="fed36d3533"><path d="M 47.707031 159.382812 L 190 159.382812 L 190 258 L 47.707031 258 Z M 47.707031 159.382812 " clip-rule="nonzero"/></clipPath><clipPath id="747ddc29ff"><path d="M 334 177 L 402.457031 177 L 402.457031 258 L 334 258 Z M 334 177 " clip-rule="nonzero"/></clipPath><clipPath id="b9fc63e85c"><path d="M 49 263 L 397 263 L 397 290.632812 L 49 290.632812 Z M 49 263 " clip-rule="nonzero"/></clipPath></defs><g clip-path="url(#069a3f5527)"><g clip-path="url(#1e32b40647)"><g transform="matrix(1, 0, 0, 1, 0, 84)"><g clip-path="url(#ae2ad1e98f)"><g clip-path="url(#cd8b1edc79)"><g clip-path="url(#4c52c6e6dd)"><path fill="#ffffff" d="M 0 0.0117188 L 450.496094 0.0117188 L 450.496094 281.988281 L 0 281.988281 Z M 0 0.0117188 " fill-opacity="1" fill-rule="nonzero"/></g></g></g></g></g></g><path fill="#000000" d="M 297.875 196.554688 C 304.136719 196.554688 309.324219 201.511719 309.695312 207.683594 L 286.027344 207.683594 C 286.402344 201.511719 291.585938 196.554688 297.875 196.554688 Z M 297.875 177.757812 C 317.089844 177.757812 332.808594 193.472656 332.808594 212.710938 L 332.808594 217.9375 C 332.808594 221.375 330.546875 222.632812 326.894531 222.632812 L 286 222.632812 L 286 226.53125 C 286 233.0625 291.332031 238.394531 297.867188 238.394531 C 302.136719 238.394531 305.949219 236.113281 308.007812 232.660156 C 309.359375 230.382812 309.140625 230.097656 312.21875 230.097656 L 326.503906 230.097656 C 331.460938 230.097656 330.757812 234.304688 329.800781 236.425781 C 324.355469 248.628906 312.0625 257.210938 297.875 257.210938 C 278.632812 257.210938 262.914062 241.472656 262.914062 222.261719 L 262.914062 212.71875 C 262.914062 193.484375 278.632812 177.769531 297.875 177.769531 Z M 297.875 177.757812 " fill-opacity="1" fill-rule="evenodd"/><path fill="#000000" d="M 193.71875 253.464844 L 214.867188 253.464844 L 214.867188 212.269531 C 214.867188 201.136719 220.09375 197.441406 226.402344 197.441406 C 232.710938 197.441406 237.964844 201.136719 237.964844 212.269531 L 237.964844 243.898438 C 237.964844 251.644531 246.375 255.011719 253.238281 254.984375 L 259.109375 254.960938 L 259.109375 209.824219 C 259.109375 191.875 244.382812 178.636719 226.410156 178.636719 C 208.429688 178.636719 193.730469 191.855469 193.730469 209.824219 L 193.730469 253.457031 Z M 193.71875 253.464844 " fill-opacity="1" fill-rule="evenodd"/><g clip-path="url(#fed36d3533)"><path fill="#000000" d="M 60.292969 159.382812 L 114.582031 159.382812 C 116.777344 159.382812 118.566406 161.175781 118.566406 163.394531 L 118.566406 177.003906 L 69.21875 177.003906 L 69.21875 195.710938 L 145.40625 195.710938 L 145.40625 223.355469 C 145.40625 234.488281 150.652344 238.183594 156.964844 238.183594 C 163.28125 238.183594 168.5 234.488281 168.5 223.355469 L 168.5 191.742188 C 168.5 183.996094 176.914062 180.613281 183.777344 180.65625 L 189.648438 180.671875 L 189.648438 225.792969 C 189.648438 243.765625 174.945312 257.003906 156.964844 257.003906 C 138.984375 257.003906 124.265625 243.765625 124.265625 225.792969 L 124.265625 213.746094 L 69.21875 213.617188 L 69.261719 251.074219 C 69.261719 252.464844 68.113281 253.621094 66.710938 253.621094 L 50.289062 253.621094 C 48.898438 253.621094 47.738281 252.472656 47.738281 251.074219 L 47.738281 171.933594 C 47.738281 165.027344 53.386719 159.382812 60.292969 159.382812 Z M 60.292969 159.382812 " fill-opacity="1" fill-rule="evenodd"/></g><g clip-path="url(#747ddc29ff)"><path fill="#000000" d="M 380.621094 202.613281 C 380.507812 202.257812 380.402344 201.996094 380.289062 201.859375 C 378.742188 199.925781 376.835938 198.648438 374.6875 197.917969 C 372.09375 197.015625 369.015625 196.71875 365.703125 196.859375 C 362.507812 196.988281 357.636719 201.996094 360.917969 204.292969 C 363.398438 206.066406 369.269531 207.570312 375.042969 209.078125 C 378.828125 210.078125 382.59375 211.050781 386.136719 212.269531 C 391.824219 214.257812 395.949219 217.339844 398.644531 221.007812 C 400.792969 223.929688 401.984375 227.207031 402.316406 230.59375 C 402.648438 233.828125 402.140625 237.097656 400.882812 240.132812 C 399.0625 244.585938 395.636719 248.65625 390.9375 251.578125 C 385.09375 255.210938 377.125 257.132812 369.347656 257.203125 C 361.597656 257.246094 353.742188 255.472656 347.9375 251.734375 C 344.371094 249.429688 340.804688 245.847656 338.308594 241.820312 C 336.714844 239.296875 335.5 236.550781 334.855469 233.738281 C 333.96875 229.957031 335.714844 229.199219 338.335938 229.199219 L 350.84375 229.199219 C 354.699219 229.199219 354.808594 230.042969 356.246094 232.339844 C 357.246094 233.914062 358.570312 235.289062 359.875 236.121094 C 362.046875 237.515625 365.492188 238.183594 369.199219 238.15625 C 373.070312 238.113281 376.835938 237.296875 379.316406 235.75 C 382.640625 233.714844 382.484375 231.390625 378.828125 230.105469 C 376.191406 229.199219 372.828125 228.3125 369.441406 227.453125 C 361.761719 225.460938 353.964844 223.425781 348.320312 219.460938 C 342.1875 215.121094 339.394531 209.433594 339.109375 203.519531 C 338.976562 200.667969 339.464844 197.789062 340.5 195.039062 C 341.492188 192.386719 342.9375 189.925781 344.753906 187.753906 C 349.382812 182.195312 356.621094 178.140625 364.789062 177.8125 C 370.789062 177.566406 376.609375 178.1875 381.996094 180.074219 C 387.796875 182.089844 392.929688 185.457031 397.027344 190.585938 C 398.621094 192.578125 399.777344 194.839844 400.523438 197.160156 C 400.96875 198.535156 401.210938 199.464844 401.386719 200.882812 C 401.628906 202.703125 400.210938 204.308594 398.175781 204.308594 L 383.160156 204.511719 C 381.699219 204.535156 381.082031 204.066406 380.613281 202.605469 Z M 380.621094 202.613281 " fill-opacity="1" fill-rule="nonzero"/></g><g clip-path="url(#b9fc63e85c)"><path fill="#000000" d="M 64.328125 281.824219 L 54.699219 281.824219 C 54.714844 282.953125 54.941406 283.945312 55.386719 284.789062 C 55.804688 285.648438 56.402344 286.292969 57.136719 286.710938 C 57.839844 287.15625 58.664062 287.382812 59.527344 287.382812 C 60.128906 287.382812 60.65625 287.3125 61.144531 287.15625 C 61.632812 287.023438 62.121094 286.796875 62.5625 286.511719 C 63.023438 286.222656 63.449219 285.910156 63.824219 285.5625 C 64.226562 285.234375 64.710938 284.773438 65.328125 284.1875 C 65.574219 283.972656 65.945312 283.859375 66.417969 283.859375 C 66.886719 283.859375 67.320312 284.015625 67.632812 284.277344 C 67.949219 284.5625 68.097656 284.9375 68.097656 285.449219 C 68.097656 285.894531 67.921875 286.425781 67.582031 287.023438 C 67.226562 287.597656 66.695312 288.171875 65.992188 288.730469 C 65.304688 289.257812 64.417969 289.730469 63.355469 290.078125 C 62.292969 290.433594 61.050781 290.632812 59.675781 290.632812 C 56.507812 290.632812 54.046875 289.730469 52.296875 287.910156 C 50.550781 286.121094 49.664062 283.660156 49.664062 280.582031 C 49.664062 279.121094 49.886719 277.769531 50.304688 276.527344 C 50.75 275.285156 51.367188 274.207031 52.210938 273.320312 C 53.027344 272.429688 54.046875 271.746094 55.265625 271.285156 C 56.484375 270.796875 57.832031 270.554688 59.316406 270.554688 C 61.242188 270.554688 62.886719 270.96875 64.257812 271.796875 C 65.632812 272.597656 66.667969 273.65625 67.355469 274.9375 C 68.042969 276.222656 68.375 277.527344 68.375 278.875 C 68.375 280.109375 68.015625 280.910156 67.3125 281.285156 C 66.609375 281.640625 65.609375 281.816406 64.320312 281.816406 Z M 54.699219 279.03125 L 63.625 279.03125 C 63.511719 277.355469 63.050781 276.085938 62.277344 275.25 C 61.476562 274.433594 60.441406 274.015625 59.152344 274.015625 C 57.933594 274.015625 56.917969 274.433594 56.144531 275.273438 C 55.34375 276.117188 54.855469 277.378906 54.707031 279.039062 Z M 101.066406 288.597656 L 97.480469 283.355469 L 93.828125 288.597656 C 93.296875 289.328125 92.851562 289.832031 92.496094 290.148438 C 92.121094 290.476562 91.652344 290.632812 91.078125 290.632812 C 90.460938 290.632812 89.929688 290.433594 89.488281 290.035156 C 89.070312 289.632812 88.84375 289.191406 88.84375 288.703125 C 88.84375 288.171875 89.171875 287.441406 89.835938 286.46875 L 94.289062 280.09375 L 90.347656 274.753906 C 89.660156 273.890625 89.332031 273.117188 89.332031 272.476562 C 89.332031 271.96875 89.53125 271.519531 89.929688 271.144531 C 90.347656 270.769531 90.878906 270.585938 91.546875 270.585938 C 92.121094 270.585938 92.59375 270.746094 92.984375 271.074219 C 93.359375 271.40625 93.800781 271.917969 94.289062 272.605469 L 97.480469 276.988281 L 100.605469 272.605469 C 101.117188 271.902344 101.550781 271.371094 101.933594 271.058594 C 102.308594 270.746094 102.796875 270.585938 103.351562 270.585938 C 103.996094 270.585938 104.546875 270.761719 104.972656 271.144531 C 105.390625 271.519531 105.613281 271.960938 105.613281 272.476562 C 105.613281 272.847656 105.527344 273.207031 105.355469 273.535156 C 105.179688 273.890625 104.910156 274.292969 104.554688 274.753906 L 100.613281 280.09375 L 105.066406 286.46875 C 105.753906 287.46875 106.109375 288.214844 106.109375 288.730469 C 106.109375 289.242188 105.894531 289.703125 105.46875 290.058594 C 105.023438 290.433594 104.492188 290.632812 103.847656 290.632812 C 103.292969 290.632812 102.804688 290.460938 102.414062 290.148438 C 102.039062 289.816406 101.597656 289.285156 101.082031 288.597656 Z M 144.699219 284.546875 C 144.699219 285.144531 144.527344 285.808594 144.144531 286.492188 C 143.785156 287.199219 143.210938 287.867188 142.464844 288.484375 C 141.707031 289.101562 140.785156 289.632812 139.628906 290.007812 C 138.480469 290.382812 137.191406 290.582031 135.773438 290.582031 C 132.722656 290.582031 130.347656 289.695312 128.652344 287.921875 C 126.917969 286.144531 126.085938 283.753906 126.085938 280.773438 C 126.085938 278.753906 126.484375 276.988281 127.257812 275.414062 C 128.03125 273.867188 129.164062 272.667969 130.640625 271.832031 C 132.128906 270.988281 133.894531 270.542969 135.957031 270.542969 C 137.21875 270.542969 138.394531 270.746094 139.453125 271.117188 C 140.515625 271.492188 141.421875 271.960938 142.175781 272.554688 C 142.910156 273.152344 143.464844 273.769531 143.855469 274.433594 C 144.257812 275.117188 144.457031 275.734375 144.457031 276.308594 C 144.457031 276.882812 144.238281 277.398438 143.796875 277.816406 C 143.351562 278.214844 142.820312 278.414062 142.203125 278.414062 C 141.785156 278.414062 141.445312 278.300781 141.1875 278.101562 C 140.898438 277.902344 140.613281 277.546875 140.28125 277.085938 C 139.664062 276.171875 139.039062 275.492188 138.375 275.023438 C 137.730469 274.578125 136.886719 274.335938 135.898438 274.335938 C 134.433594 274.335938 133.261719 274.910156 132.375 276.039062 C 131.46875 277.1875 131.023438 278.746094 131.023438 280.710938 C 131.023438 281.613281 131.15625 282.484375 131.382812 283.257812 C 131.597656 284.03125 131.9375 284.703125 132.375 285.222656 C 132.792969 285.78125 133.320312 286.199219 133.949219 286.484375 C 134.546875 286.753906 135.234375 286.902344 135.957031 286.902344 C 136.933594 286.902344 137.777344 286.660156 138.480469 286.214844 C 139.183594 285.753906 139.8125 285.066406 140.359375 284.109375 C 140.648438 283.554688 140.976562 283.136719 141.332031 282.824219 C 141.664062 282.511719 142.109375 282.335938 142.621094 282.335938 C 143.222656 282.335938 143.707031 282.582031 144.109375 283.050781 C 144.507812 283.492188 144.710938 283.980469 144.710938 284.511719 Z M 166.40625 287.625 L 166.40625 266.28125 C 166.40625 265.28125 166.621094 264.550781 167.046875 264.046875 C 167.492188 263.542969 168.09375 263.292969 168.839844 263.292969 C 169.589844 263.292969 170.171875 263.535156 170.632812 264.046875 C 171.074219 264.535156 171.320312 265.292969 171.320312 266.28125 L 171.320312 287.625 C 171.320312 288.625 171.074219 289.371094 170.613281 289.886719 C 170.152344 290.371094 169.554688 290.640625 168.839844 290.640625 C 168.128906 290.640625 167.535156 290.371094 167.066406 289.867188 C 166.621094 289.335938 166.40625 288.605469 166.40625 287.632812 Z M 207.515625 287.84375 L 207.515625 287.199219 C 206.917969 287.953125 206.300781 288.597656 205.65625 289.078125 C 204.992188 289.582031 204.28125 289.964844 203.53125 290.207031 C 202.757812 290.449219 201.871094 290.582031 200.898438 290.582031 C 199.703125 290.582031 198.636719 290.335938 197.6875 289.851562 C 196.757812 289.335938 196.023438 288.675781 195.496094 287.789062 C 194.894531 286.746094 194.589844 285.242188 194.589844 283.292969 L 194.589844 273.535156 C 194.589844 272.535156 194.808594 271.804688 195.25 271.328125 C 195.695312 270.839844 196.292969 270.597656 197.027344 270.597656 C 197.757812 270.597656 198.355469 270.839844 198.816406 271.351562 C 199.261719 271.839844 199.503906 272.570312 199.503906 273.542969 L 199.503906 281.421875 C 199.503906 282.570312 199.59375 283.527344 199.792969 284.300781 C 199.964844 285.078125 200.324219 285.703125 200.808594 286.121094 C 201.3125 286.5625 202 286.78125 202.84375 286.78125 C 203.6875 286.78125 204.464844 286.539062 205.195312 286.050781 C 205.925781 285.546875 206.480469 284.902344 206.8125 284.101562 C 207.082031 283.414062 207.210938 281.882812 207.210938 279.519531 L 207.210938 273.542969 C 207.210938 272.570312 207.457031 271.839844 207.898438 271.351562 C 208.359375 270.847656 208.960938 270.597656 209.691406 270.597656 C 210.421875 270.597656 211.023438 270.839844 211.464844 271.328125 C 211.910156 271.8125 212.128906 272.542969 212.128906 273.535156 L 212.128906 287.789062 C 212.128906 288.738281 211.925781 289.425781 211.484375 289.910156 C 211.066406 290.371094 210.507812 290.625 209.847656 290.625 C 209.1875 290.625 208.605469 290.355469 208.167969 289.867188 C 207.75 289.382812 207.527344 288.71875 207.527344 287.832031 Z M 251.230469 284.1875 C 251.230469 285.539062 250.898438 286.710938 250.238281 287.683594 C 249.578125 288.632812 248.601562 289.363281 247.289062 289.875 C 246 290.363281 244.4375 290.632812 242.574219 290.632812 C 240.824219 290.632812 239.292969 290.347656 238.035156 289.816406 C 236.773438 289.285156 235.839844 288.597656 235.242188 287.78125 C 234.640625 286.980469 234.335938 286.164062 234.335938 285.347656 C 234.335938 284.816406 234.535156 284.347656 234.910156 283.972656 C 235.308594 283.570312 235.796875 283.398438 236.371094 283.398438 C 236.902344 283.398438 237.300781 283.511719 237.570312 283.773438 C 237.859375 284.015625 238.128906 284.371094 238.371094 284.832031 C 238.886719 285.695312 239.476562 286.363281 240.191406 286.808594 C 240.878906 287.222656 241.851562 287.449219 243.070312 287.449219 C 244.042969 287.449219 244.863281 287.234375 245.480469 286.789062 C 246.125 286.371094 246.429688 285.859375 246.429688 285.285156 C 246.429688 284.425781 246.097656 283.796875 245.453125 283.40625 C 244.792969 283.007812 243.707031 282.605469 242.199219 282.257812 C 240.519531 281.839844 239.121094 281.398438 238.058594 280.929688 C 237.023438 280.46875 236.15625 279.867188 235.511719 279.09375 C 234.894531 278.335938 234.5625 277.414062 234.5625 276.300781 C 234.5625 275.308594 234.847656 274.378906 235.449219 273.511719 C 236.050781 272.621094 236.910156 271.917969 238.058594 271.40625 C 239.207031 270.875 240.582031 270.605469 242.226562 270.605469 C 243.488281 270.605469 244.636719 270.734375 245.636719 271.003906 C 246.652344 271.273438 247.515625 271.621094 248.183594 272.066406 C 248.871094 272.507812 249.378906 273.015625 249.734375 273.542969 C 250.089844 274.101562 250.289062 274.605469 250.289062 275.136719 C 250.289062 275.667969 250.089844 276.152344 249.714844 276.511719 C 249.34375 276.882812 248.785156 277.058594 248.097656 277.058594 C 247.585938 277.058594 247.167969 276.902344 246.792969 276.613281 C 246.460938 276.328125 246.046875 275.902344 245.574219 275.328125 C 245.21875 274.839844 244.773438 274.464844 244.269531 274.152344 C 243.765625 273.867188 243.078125 273.734375 242.207031 273.734375 C 241.339844 273.734375 240.589844 273.9375 239.992188 274.308594 C 239.417969 274.683594 239.101562 275.152344 239.101562 275.726562 C 239.101562 276.230469 239.320312 276.65625 239.765625 276.988281 C 240.183594 277.320312 240.765625 277.605469 241.511719 277.804688 C 242.242188 278.023438 243.234375 278.292969 244.523438 278.605469 C 246.054688 278.980469 247.316406 279.421875 248.261719 279.953125 C 249.238281 280.46875 249.96875 281.058594 250.480469 281.773438 C 250.96875 282.476562 251.230469 283.277344 251.230469 284.179688 Z M 278.640625 273.386719 L 278.640625 287.625 C 278.640625 288.625 278.398438 289.371094 277.9375 289.859375 C 277.476562 290.371094 276.875 290.632812 276.160156 290.632812 C 275.449219 290.632812 274.855469 290.363281 274.386719 289.859375 C 273.941406 289.328125 273.726562 288.597656 273.726562 287.625 L 273.726562 273.542969 C 273.726562 272.570312 273.953125 271.839844 274.386719 271.351562 C 274.847656 270.847656 275.429688 270.597656 276.160156 270.597656 C 276.890625 270.597656 277.464844 270.839844 277.9375 271.351562 C 278.398438 271.839844 278.640625 272.527344 278.640625 273.386719 Z M 276.207031 268.316406 C 275.519531 268.316406 274.945312 268.09375 274.457031 267.675781 C 273.96875 267.257812 273.726562 266.65625 273.726562 265.898438 C 273.726562 265.214844 273.96875 264.640625 274.457031 264.167969 C 274.96875 263.726562 275.542969 263.507812 276.207031 263.507812 C 276.867188 263.507812 277.398438 263.707031 277.882812 264.109375 C 278.386719 264.527344 278.640625 265.125 278.640625 265.898438 C 278.640625 266.675781 278.398438 267.25 277.910156 267.675781 C 277.421875 268.09375 276.867188 268.316406 276.207031 268.316406 Z M 305.539062 273.675781 L 309.496094 284.851562 L 313.792969 273.179688 C 314.152344 272.230469 314.457031 271.5625 314.792969 271.1875 C 315.125 270.789062 315.613281 270.585938 316.28125 270.585938 C 316.898438 270.585938 317.429688 270.804688 317.875 271.230469 C 318.316406 271.648438 318.535156 272.136719 318.535156 272.691406 C 318.535156 272.890625 318.492188 273.152344 318.40625 273.441406 C 318.335938 273.726562 318.246094 273.996094 318.144531 274.257812 C 318.03125 274.5 317.917969 274.789062 317.785156 275.117188 L 313.070312 286.832031 C 312.941406 287.164062 312.757812 287.605469 312.558594 288.113281 C 312.339844 288.640625 312.113281 289.058594 311.855469 289.441406 C 311.59375 289.816406 311.28125 290.085938 310.90625 290.304688 C 310.53125 290.503906 310.0625 290.617188 309.515625 290.617188 C 308.828125 290.617188 308.277344 290.441406 307.851562 290.128906 C 307.433594 289.816406 307.140625 289.46875 306.949219 289.085938 C 306.746094 288.710938 306.390625 287.953125 305.929688 286.824219 L 301.257812 275.222656 C 301.144531 274.9375 301.042969 274.648438 300.929688 274.363281 C 300.796875 274.074219 300.710938 273.789062 300.640625 273.476562 C 300.554688 273.1875 300.511719 272.917969 300.511719 272.699219 C 300.511719 272.371094 300.625 272.039062 300.824219 271.699219 C 301.023438 271.371094 301.3125 271.101562 301.667969 270.882812 C 302.042969 270.683594 302.414062 270.570312 302.84375 270.570312 C 303.660156 270.570312 304.234375 270.8125 304.546875 271.285156 C 304.832031 271.746094 305.191406 272.542969 305.566406 273.648438 Z M 358.351562 280.632812 C 358.351562 282.09375 358.132812 283.441406 357.664062 284.683594 C 357.203125 285.929688 356.558594 286.988281 355.671875 287.875 C 354.808594 288.765625 353.765625 289.449219 352.574219 289.910156 C 351.382812 290.398438 350.027344 290.640625 348.519531 290.640625 C 347.015625 290.640625 345.683594 290.398438 344.492188 289.910156 C 343.300781 289.425781 342.285156 288.738281 341.394531 287.851562 C 340.535156 286.945312 339.867188 285.875 339.429688 284.667969 C 338.960938 283.449219 338.742188 282.101562 338.742188 280.613281 C 338.742188 279.128906 338.960938 277.753906 339.429688 276.519531 C 339.890625 275.300781 340.535156 274.242188 341.394531 273.351562 C 342.257812 272.464844 343.273438 271.804688 344.492188 271.316406 C 345.710938 270.855469 347.042969 270.605469 348.519531 270.605469 C 350 270.605469 351.355469 270.847656 352.574219 271.335938 C 353.792969 271.796875 354.835938 272.507812 355.699219 273.398438 C 356.558594 274.285156 357.230469 275.34375 357.671875 276.5625 C 358.140625 277.796875 358.359375 279.152344 358.359375 280.632812 Z M 353.390625 280.632812 C 353.390625 278.625 352.949219 277.066406 352.085938 275.945312 C 351.199219 274.839844 350.007812 274.265625 348.519531 274.265625 C 347.546875 274.265625 346.703125 274.511719 345.972656 275.023438 C 345.242188 275.527344 344.667969 276.257812 344.285156 277.230469 C 343.867188 278.207031 343.683594 279.335938 343.683594 280.640625 C 343.683594 281.945312 343.859375 283.050781 344.257812 284.007812 C 344.660156 284.953125 345.214844 285.710938 345.945312 286.222656 C 346.652344 286.738281 347.519531 286.980469 348.511719 286.980469 C 350 286.980469 351.191406 286.425781 352.078125 285.300781 C 352.941406 284.199219 353.382812 282.625 353.382812 280.648438 Z M 396.410156 284.1875 C 396.410156 285.539062 396.078125 286.710938 395.417969 287.683594 C 394.757812 288.632812 393.78125 289.363281 392.46875 289.875 C 391.191406 290.363281 389.617188 290.632812 387.753906 290.632812 C 386.003906 290.632812 384.472656 290.347656 383.214844 289.816406 C 381.953125 289.285156 381.019531 288.597656 380.421875 287.78125 C 379.820312 286.980469 379.515625 286.164062 379.515625 285.347656 C 379.515625 284.816406 379.714844 284.347656 380.089844 283.972656 C 380.492188 283.570312 380.976562 283.398438 381.550781 283.398438 C 382.082031 283.398438 382.480469 283.511719 382.742188 283.773438 C 383.03125 284.015625 383.300781 284.371094 383.542969 284.832031 C 384.046875 285.695312 384.648438 286.363281 385.363281 286.808594 C 386.050781 287.222656 387.023438 287.449219 388.242188 287.449219 C 389.214844 287.449219 390.007812 287.234375 390.652344 286.789062 C 391.269531 286.371094 391.609375 285.859375 391.609375 285.285156 C 391.609375 284.425781 391.277344 283.796875 390.605469 283.40625 C 389.964844 283.007812 388.875 282.605469 387.371094 282.257812 C 385.691406 281.839844 384.292969 281.398438 383.230469 280.929688 C 382.167969 280.46875 381.324219 279.867188 380.679688 279.09375 C 380.0625 278.335938 379.726562 277.414062 379.726562 276.300781 C 379.726562 275.308594 380.011719 274.378906 380.613281 273.511719 C 381.210938 272.621094 382.074219 271.917969 383.222656 271.40625 C 384.351562 270.875 385.746094 270.605469 387.363281 270.605469 C 388.648438 270.605469 389.796875 270.734375 390.789062 271.003906 C 391.808594 271.273438 392.667969 271.621094 393.339844 272.066406 C 394.027344 272.507812 394.53125 273.015625 394.886719 273.542969 C 395.242188 274.101562 395.417969 274.605469 395.417969 275.136719 C 395.417969 275.667969 395.242188 276.152344 394.859375 276.511719 C 394.488281 276.882812 393.929688 277.058594 393.242188 277.058594 C 392.730469 277.058594 392.296875 276.902344 391.9375 276.613281 C 391.609375 276.328125 391.179688 275.902344 390.71875 275.328125 C 390.363281 274.839844 389.921875 274.464844 389.414062 274.152344 C 388.902344 273.867188 388.222656 273.734375 387.355469 273.734375 C 386.484375 273.734375 385.734375 273.9375 385.136719 274.308594 C 384.5625 274.683594 384.25 275.152344 384.25 275.726562 C 384.25 276.230469 384.464844 276.65625 384.890625 276.988281 C 385.335938 277.320312 385.910156 277.605469 386.640625 277.804688 C 387.398438 278.023438 388.390625 278.292969 389.675781 278.605469 C 391.207031 278.980469 392.46875 279.421875 393.417969 279.953125 C 394.390625 280.46875 395.121094 281.058594 395.625 281.773438 C 396.113281 282.476562 396.382812 283.277344 396.382812 284.179688 Z M 396.410156 284.1875 " fill-opacity="1" fill-rule="nonzero"/></g></svg>