<?xml version="1.0" encoding="UTF-8"?>
<svg id="Capa_1" data-name="Capa 1" xmlns="http://www.w3.org/2000/svg" viewBox="0 0 1069.2 221.03">
  <g>
    <path d="M235.38,121.14s-13.57,13.23-22.73,19c-9.16,5.77-8.82,21.38,9.84,38.34,0,0,30.88-18.66,12.89-57.35Z"/>
    <path d="M128.16,47.84s-24.77-14.93-42.08-10.18c-17.31,4.75.68,15.27.68,15.27,0,0,10.18,10.18,11.2,15.27,1.02,5.09-40.38,46.83-54.97-12.89,0,0,33.93-17.64,22.73-55.31,0,0-20.36,4.75-31.9,25.79,0,0-11.2-23.75-31.56-25.45,0,0-12.55,31.56,21.38,55.31,0,0-20.36,150.66,102.81,106.89,0,0-40.72,3.39-39.02-5.09,0,0,1.7-3.39,8.82-4.41,7.13-1.02,29.18-2.71,45.13-12.22,0,0,5.66-1.64,4.26,2.58-1.41,4.22-22.48,39.78,23.18,77.63,0,0,41.63-37.85,9.31-81.76,0,0-8.61-8.96-.88-17.04l-16.69-22.83s-15.28-3.16-10.01-18.27l-22.41-33.29Z"/>
    <path d="M128.16,47.84s70.01-60.68,126.74-1.67c3.8,4.33,5.56,8.47,6.41,10.98.85,2.5,4.88,15.5-2.5,25.16-2.1,2.75-4.5,4.41-6.02,5.31,0,0,9.48-23.89-1.93-20.9,0,0-9.13,2.99-26.35,20.9-17.21,17.92-47.25,34.6-47.25,34.6l-16.69-22.83s16.16,1.76,28.28-11.42c12.12-13.17,4.92-21.43,4.92-21.43,0,0-18.79-14.75-43.21,14.58l-22.41-33.29Z"/>
  </g>
  <g>
    <path d="M317.36,26.66h69.41c12.8,0,23.07,2.93,30.8,8.8,7.73,5.87,11.6,14.73,11.6,26.6,0,7.2-1.77,13.37-5.3,18.5-3.53,5.14-8.57,9.1-15.1,11.9v.4c8.8,1.87,15.47,6.03,20,12.5,4.53,6.47,6.8,14.57,6.8,24.3,0,5.6-1,10.83-3,15.7-2,4.87-5.14,9.07-9.4,12.6-4.27,3.53-9.73,6.33-16.41,8.4s-14.6,3.1-23.8,3.1h-65.61V26.66h0ZM342.36,86.47h40.8c6,0,11-1.7,15-5.1,4-3.4,6-8.3,6-14.7,0-7.2-1.8-12.27-5.4-15.2-3.6-2.93-8.8-4.4-15.6-4.4h-40.8v39.4h0ZM342.36,149.07h44.2c7.6,0,13.5-1.97,17.7-5.9,4.2-3.93,6.3-9.5,6.3-16.7s-2.1-12.5-6.3-16.3c-4.2-3.8-10.1-5.7-17.7-5.7h-44.2v44.6Z"/>
    <path d="M448.57,26.66h22.8v142.81h-22.8V26.66Z"/>
    <path d="M477.77,66.06h25l27,77.2h.4l26.2-77.2h23.8l-40.2,109.01c-1.87,4.67-3.7,9.14-5.5,13.4-1.8,4.27-4,8.03-6.6,11.3-2.6,3.26-5.83,5.87-9.7,7.8-3.87,1.93-8.8,2.9-14.8,2.9-5.34,0-10.6-.4-15.8-1.2v-19.2c1.87.27,3.67.57,5.4.9,1.73.33,3.53.5,5.4.5,2.66,0,4.87-.34,6.6-1,1.73-.67,3.16-1.64,4.3-2.9,1.13-1.27,2.1-2.77,2.9-4.5.8-1.73,1.54-3.73,2.2-6l2.6-8-39.2-103.01h0Z"/>
    <path d="M585.97,66.06h21.6v15.2l.4.4c3.46-5.73,8-10.23,13.6-13.5,5.6-3.26,11.8-4.9,18.6-4.9,11.33,0,20.27,2.93,26.8,8.8,6.53,5.87,9.8,14.67,9.8,26.4v71h-22.8v-65.01c-.27-8.13-2-14.03-5.2-17.7-3.2-3.67-8.2-5.5-15-5.5-3.87,0-7.33.7-10.4,2.1-3.07,1.4-5.67,3.33-7.8,5.8-2.13,2.47-3.8,5.37-5,8.7-1.2,3.33-1.8,6.87-1.8,10.6v61.01h-22.8v-103.4h-.02,0Z"/>
    <path d="M791.18,169.47h-21.6v-14h-.4c-3.07,6-7.54,10.3-13.4,12.9-5.87,2.6-12.07,3.9-18.6,3.9-8.14,0-15.24-1.44-21.3-4.3-6.07-2.86-11.1-6.76-15.1-11.7-4-4.93-7-10.76-9-17.5-2-6.73-3-13.96-3-21.7,0-9.33,1.27-17.4,3.8-24.2s5.9-12.4,10.1-16.8c4.2-4.4,9-7.63,14.4-9.7,5.4-2.07,10.9-3.1,16.5-3.1,3.2,0,6.46.3,9.8.9,3.33.6,6.53,1.57,9.6,2.9,3.06,1.34,5.9,3.03,8.5,5.1,2.6,2.07,4.77,4.5,6.5,7.3h.4V26.66h22.8v142.81h0ZM711.58,118.86c0,4.4.57,8.74,1.7,13,1.13,4.27,2.86,8.07,5.2,11.4,2.33,3.33,5.3,6,8.9,8,3.6,2,7.87,3,12.8,3s9.43-1.07,13.1-3.2c3.66-2.13,6.66-4.93,9-8.4,2.33-3.46,4.07-7.36,5.2-11.7,1.13-4.33,1.7-8.77,1.7-13.3,0-11.47-2.57-20.4-7.7-26.8-5.14-6.4-12.1-9.6-20.9-9.6-5.34,0-9.83,1.1-13.5,3.3s-6.67,5.07-9,8.6c-2.33,3.53-4,7.53-5,12-1,4.47-1.5,9.04-1.5,13.7h.02,0Z"/>
    <path d="M798.58,66.06h17.2v-31h22.8v31h20.6v17h-20.6v55.2c0,2.4.1,4.47.3,6.2s.67,3.2,1.4,4.4,1.83,2.1,3.3,2.7,3.46.9,6,.9c1.6,0,3.2-.03,4.8-.1,1.6-.07,3.2-.3,4.8-.7v17.6c-2.53.27-5,.53-7.4.8-2.4.27-4.87.4-7.4.4-6,0-10.83-.57-14.5-1.7-3.67-1.13-6.53-2.8-8.6-5-2.07-2.2-3.47-4.97-4.2-8.3-.74-3.33-1.17-7.13-1.3-11.4v-61.01h-17.2v-17h0Z"/>
    <path d="M886.38,123.67c0,4,.57,7.87,1.7,11.6s2.83,7,5.1,9.8c2.26,2.8,5.13,5.04,8.6,6.7,3.46,1.67,7.6,2.5,12.4,2.5,6.66,0,12.03-1.43,16.1-4.3,4.07-2.86,7.1-7.16,9.1-12.9h21.6c-1.2,5.6-3.27,10.6-6.2,15-2.93,4.4-6.47,8.1-10.6,11.1-4.14,3-8.77,5.27-13.9,6.8s-10.5,2.3-16.1,2.3c-8.14,0-15.34-1.34-21.6-4-6.27-2.66-11.57-6.4-15.9-11.2-4.34-4.8-7.6-10.53-9.8-17.2-2.2-6.66-3.3-14-3.3-22,0-7.33,1.17-14.3,3.5-20.9,2.33-6.6,5.67-12.4,10-17.4,4.33-5,9.57-8.97,15.7-11.9,6.13-2.93,13.07-4.4,20.8-4.4,8.13,0,15.43,1.7,21.9,5.1,6.46,3.4,11.83,7.9,16.1,13.5,4.27,5.6,7.37,12.04,9.3,19.3,1.93,7.27,2.43,14.77,1.5,22.5h-76.01.02ZM939.59,108.67c-.27-3.6-1.04-7.06-2.3-10.4-1.27-3.33-3-6.23-5.2-8.7-2.2-2.46-4.87-4.47-8-6-3.13-1.53-6.63-2.3-10.5-2.3s-7.64.7-10.9,2.1c-3.27,1.4-6.07,3.33-8.4,5.8-2.33,2.47-4.2,5.37-5.6,8.7-1.4,3.33-2.17,6.93-2.3,10.8h53.2Z"/>
    <path d="M973.39,26.66h22.8v81.2l41.2-41.8h28l-39.6,38,43.4,65.41h-27.81l-31.61-50.21-13.6,13.2v37h-22.8V26.66h0Z"/>
  </g>
</svg>