<?xml version="1.0" encoding="UTF-8"?>
<svg id="Layer_1" data-name="Layer 1" xmlns="http://www.w3.org/2000/svg" viewBox="0 0 407.72 150.92">
  <defs>
    <style>
      .cls-1 {
        fill-rule: evenodd;
      }
    </style>
  </defs>
  <path class="cls-1" d="M287.54,42.74h0c7.2,0,13.16,5.7,13.59,12.8h-27.21c.43-7.1,6.39-12.8,13.62-12.8h0ZM287.54,21.13h0c22.09,0,40.16,18.07,40.16,40.19v6.01c0,3.95-2.6,5.4-6.8,5.4h-47.01v4.48c0,7.51,6.13,13.64,13.64,13.64h0c4.91,0,9.29-2.62,11.66-6.59,1.55-2.62,1.3-2.95,4.84-2.95h16.42c5.7,0,4.89,4.84,3.79,7.28-6.26,14.03-20.39,23.9-36.7,23.9h0c-22.12,0-40.19-18.1-40.19-40.19v-10.97c0-22.12,18.07-40.19,40.19-40.19h0Z"/>
  <path class="cls-1" d="M167.81,108.18h24.31v-47.37c0-12.8,6.01-17.05,13.26-17.05s13.29,4.25,13.29,17.05v36.37c0,8.91,9.67,12.78,17.56,12.75l6.75-.03v-51.9c0-20.64-16.93-35.86-37.59-35.86h0c-20.67,0-37.57,15.2-37.57,35.86v50.17Z"/>
  <path class="cls-1" d="M14.43,0h62.41c2.52,0,4.58,2.06,4.58,4.61v15.65H24.69v21.51h87.58v31.79c0,12.8,6.03,17.05,13.29,17.05s13.26-4.25,13.26-17.05v-36.35c0-8.91,9.67-12.8,17.56-12.75l6.75.02v51.88c0,20.67-16.9,35.89-37.57,35.89h0c-20.67,0-37.59-15.22-37.59-35.89v-13.85l-63.28-.15.05,43.07c0,1.6-1.32,2.93-2.93,2.93H2.93c-1.6,0-2.93-1.32-2.93-2.93V14.43C0,6.49,6.49,0,14.43,0h0Z"/>
  <path d="M382.66,49.71c-.13-.41-.25-.71-.38-.87-1.78-2.22-3.97-3.69-6.44-4.53-2.98-1.04-6.52-1.38-10.33-1.22-3.67.15-9.27,5.91-5.5,8.55,2.85,2.04,9.6,3.77,16.24,5.5,4.35,1.15,8.68,2.27,12.75,3.67,6.54,2.29,11.28,5.83,14.38,10.05,2.47,3.36,3.84,7.13,4.22,11.02.38,3.72-.2,7.48-1.65,10.97-2.09,5.12-6.03,9.8-11.43,13.16-6.72,4.18-15.88,6.39-24.82,6.47-8.91.05-17.94-1.99-24.61-6.29-4.1-2.65-8.2-6.77-11.07-11.4-1.83-2.9-3.23-6.06-3.97-9.29-1.02-4.35.99-5.22,4-5.22h14.38c4.43,0,4.56.97,6.21,3.61,1.15,1.81,2.67,3.39,4.17,4.35,2.5,1.6,6.46,2.37,10.72,2.34,4.45-.05,8.78-.99,11.63-2.77,3.82-2.34,3.64-5.01-.56-6.49-3.03-1.04-6.9-2.06-10.79-3.05-8.83-2.29-17.79-4.63-24.28-9.19-7.05-4.99-10.26-11.53-10.59-18.33-.15-3.28.41-6.59,1.6-9.75,1.14-3.05,2.8-5.88,4.89-8.38,5.32-6.39,13.64-11.05,23.03-11.43,6.9-.28,13.59.43,19.78,2.6,6.67,2.32,12.57,6.19,17.28,12.09,1.83,2.29,3.16,4.89,4.02,7.56.51,1.58.79,2.65.99,4.28.28,2.09-1.35,3.94-3.69,3.94l-17.26.23c-1.68.03-2.39-.51-2.93-2.19h0Z"/>
  <path d="M19.07,140.79H8c.02,1.3.28,2.44.79,3.41.48.99,1.17,1.73,2.01,2.21.81.51,1.76.77,2.75.77.69,0,1.3-.08,1.86-.26.56-.15,1.12-.41,1.63-.74.53-.33,1.02-.69,1.45-1.09.46-.38,1.02-.91,1.73-1.58.28-.25.71-.38,1.25-.38s1.04.18,1.4.48c.36.33.53.76.53,1.35,0,.51-.2,1.12-.59,1.81-.41.66-1.02,1.32-1.83,1.96-.79.61-1.81,1.15-3.03,1.55-1.22.41-2.65.64-4.23.64-3.64,0-6.47-1.04-8.48-3.13-2.01-2.06-3.03-4.89-3.03-8.43,0-1.68.26-3.23.74-4.66.51-1.43,1.22-2.67,2.19-3.69.94-1.02,2.11-1.81,3.51-2.34,1.4-.56,2.95-.84,4.66-.84,2.21,0,4.1.48,5.68,1.43,1.58.92,2.77,2.14,3.56,3.61.79,1.48,1.17,2.98,1.17,4.53,0,1.42-.41,2.34-1.22,2.77-.81.41-1.96.61-3.44.61h0ZM8,137.58h10.26c-.13-1.93-.66-3.39-1.55-4.35-.92-.94-2.11-1.42-3.59-1.42-1.4,0-2.57.48-3.46,1.45-.92.97-1.48,2.42-1.65,4.33h0ZM61.3,148.58l-4.12-6.03-4.2,6.03c-.61.84-1.12,1.42-1.53,1.78-.43.38-.97.56-1.63.56-.71,0-1.32-.23-1.83-.69-.48-.46-.74-.97-.74-1.53,0-.61.38-1.45,1.14-2.57l5.12-7.33-4.53-6.14c-.79-.99-1.17-1.88-1.17-2.62,0-.58.23-1.1.69-1.53.48-.43,1.09-.64,1.86-.64.66,0,1.2.18,1.65.56.43.38.94.97,1.5,1.76l3.67,5.04,3.59-5.04c.59-.81,1.09-1.42,1.53-1.78.43-.36.99-.54,1.63-.54.74,0,1.37.2,1.86.64.48.43.74.94.74,1.53,0,.43-.1.84-.3,1.22-.2.41-.51.87-.92,1.4l-4.53,6.14,5.12,7.33c.79,1.15,1.2,2.01,1.2,2.6s-.25,1.12-.74,1.53c-.51.43-1.12.66-1.86.66-.64,0-1.2-.2-1.65-.56-.43-.38-.94-.99-1.53-1.78h0ZM111.46,143.92c0,.69-.2,1.45-.64,2.24-.41.81-1.07,1.58-1.93,2.29-.87.71-1.93,1.32-3.26,1.75-1.32.43-2.8.66-4.43.66-3.51,0-6.24-1.02-8.19-3.06-1.99-2.04-2.95-4.79-2.95-8.22,0-2.32.46-4.35,1.35-6.16.89-1.78,2.19-3.16,3.89-4.12,1.71-.97,3.74-1.48,6.11-1.48,1.45,0,2.8.23,4.02.66,1.22.43,2.26.97,3.13,1.65.84.69,1.48,1.4,1.93,2.16.46.79.69,1.5.69,2.16s-.25,1.25-.76,1.73c-.51.46-1.12.69-1.83.69-.48,0-.87-.13-1.17-.36-.33-.23-.66-.64-1.04-1.17-.71-1.05-1.43-1.83-2.19-2.37-.74-.51-1.71-.79-2.85-.79-1.68,0-3.03.66-4.05,1.96-1.04,1.32-1.55,3.11-1.55,5.37,0,1.04.15,2.04.41,2.93.25.89.64,1.66,1.14,2.26.48.64,1.09,1.12,1.81,1.45.69.31,1.48.48,2.31.48,1.12,0,2.09-.28,2.9-.79.81-.53,1.53-1.32,2.16-2.42.33-.64.71-1.12,1.12-1.48.38-.36.89-.56,1.48-.56.69,0,1.25.28,1.71.82.46.51.69,1.07.69,1.68h0ZM136.41,147.46v-24.54c0-1.15.25-1.99.74-2.57.51-.58,1.2-.87,2.06-.87s1.53.28,2.06.87c.51.56.79,1.43.79,2.57v24.54c0,1.15-.28,2.01-.81,2.6-.53.56-1.22.87-2.04.87s-1.5-.31-2.04-.89c-.51-.61-.76-1.45-.76-2.57h0ZM183.67,147.71v-.74c-.69.87-1.4,1.61-2.14,2.16-.76.58-1.58,1.02-2.44,1.3-.89.28-1.91.43-3.03.43-1.37,0-2.6-.28-3.69-.84-1.07-.59-1.91-1.35-2.52-2.37-.69-1.2-1.04-2.93-1.04-5.17v-11.22c0-1.15.25-1.99.76-2.54.51-.56,1.2-.84,2.04-.84s1.53.28,2.06.87c.51.56.79,1.4.79,2.52v9.06c0,1.32.1,2.42.33,3.31.2.89.61,1.61,1.17,2.09.58.51,1.37.76,2.34.76s1.86-.28,2.7-.84c.84-.58,1.48-1.32,1.86-2.24.31-.79.46-2.55.46-5.27v-6.87c0-1.12.28-1.96.79-2.52.53-.58,1.22-.87,2.06-.87s1.53.28,2.04.84c.51.56.76,1.4.76,2.54v16.39c0,1.09-.23,1.88-.74,2.44-.48.53-1.12.82-1.88.82s-1.43-.31-1.93-.87c-.48-.56-.74-1.32-.74-2.34h0ZM233.92,143.51c0,1.55-.38,2.9-1.14,4.02-.76,1.09-1.88,1.93-3.39,2.52-1.48.56-3.28.87-5.42.87-2.01,0-3.77-.33-5.22-.94-1.45-.61-2.52-1.4-3.21-2.34-.69-.92-1.04-1.86-1.04-2.8,0-.61.23-1.15.66-1.58.46-.46,1.02-.66,1.68-.66.61,0,1.07.13,1.38.43.33.28.64.69.92,1.22.59.99,1.27,1.76,2.09,2.27.79.48,1.91.74,3.31.74,1.12,0,2.06-.25,2.77-.76.74-.48,1.09-1.07,1.09-1.73,0-.99-.38-1.71-1.12-2.16-.76-.46-2.01-.92-3.74-1.32-1.93-.48-3.54-.99-4.76-1.53-1.19-.53-2.19-1.22-2.93-2.11-.71-.87-1.09-1.93-1.09-3.21,0-1.14.33-2.21,1.02-3.21.69-1.02,1.68-1.83,3-2.42,1.32-.61,2.9-.92,4.79-.92,1.45,0,2.77.15,3.92.46,1.17.31,2.16.71,2.93,1.22.79.51,1.37,1.09,1.78,1.7.41.64.64,1.22.64,1.83s-.23,1.17-.66,1.58c-.43.43-1.07.63-1.86.63-.59,0-1.07-.18-1.5-.51-.38-.33-.86-.82-1.4-1.48-.41-.56-.92-.99-1.5-1.35-.58-.33-1.37-.48-2.37-.48s-1.86.23-2.55.66c-.66.43-1.02.97-1.02,1.63,0,.58.25,1.07.76,1.45.48.38,1.15.71,2.01.94.84.25,1.98.56,3.46.92,1.76.43,3.21.94,4.3,1.55,1.12.59,1.96,1.27,2.55,2.09.56.81.86,1.73.86,2.77h0ZM265.43,131.09v16.37c0,1.15-.28,2.01-.81,2.57-.53.59-1.22.89-2.04.89s-1.5-.31-2.04-.89c-.51-.61-.76-1.45-.76-2.57v-16.19c0-1.12.26-1.96.76-2.52.53-.58,1.2-.87,2.04-.87s1.5.28,2.04.87c.53.56.81,1.35.81,2.34h0ZM262.63,125.26c-.79,0-1.45-.26-2.01-.74-.56-.48-.84-1.17-.84-2.04,0-.79.28-1.45.84-1.99.59-.51,1.25-.76,2.01-.76s1.37.23,1.93.69c.58.48.87,1.17.87,2.06s-.28,1.55-.84,2.04c-.56.48-1.2.74-1.96.74h0ZM296.35,131.42l4.55,12.85,4.94-13.42c.41-1.09.76-1.86,1.15-2.29.38-.46.94-.69,1.71-.69.71,0,1.32.25,1.83.74.51.48.76,1.04.76,1.68,0,.23-.05.53-.15.86-.08.33-.18.64-.3.94-.13.28-.26.61-.41.99l-5.42,13.47c-.15.38-.36.89-.59,1.47-.25.61-.51,1.09-.81,1.53-.3.43-.66.74-1.09.99-.43.23-.97.36-1.6.36-.79,0-1.42-.2-1.91-.56-.48-.36-.82-.76-1.04-1.2-.23-.43-.64-1.3-1.17-2.6l-5.37-13.34c-.13-.33-.25-.66-.38-.99-.15-.33-.25-.66-.33-1.02-.1-.33-.15-.64-.15-.89,0-.38.13-.76.36-1.15.23-.38.56-.69.97-.94.43-.23.86-.36,1.35-.36.94,0,1.6.28,1.96.82.33.53.74,1.45,1.17,2.72h0ZM357.06,139.42c0,1.68-.25,3.23-.79,4.66-.53,1.43-1.27,2.65-2.29,3.67-.99,1.02-2.19,1.81-3.56,2.34-1.37.56-2.93.84-4.66.84s-3.26-.28-4.63-.84c-1.37-.56-2.54-1.35-3.56-2.37-.99-1.04-1.76-2.27-2.26-3.66-.54-1.4-.79-2.95-.79-4.66s.25-3.29.79-4.71c.53-1.4,1.27-2.62,2.26-3.64.99-1.02,2.16-1.78,3.56-2.34,1.4-.53,2.93-.82,4.63-.82s3.26.28,4.66.84c1.4.53,2.6,1.35,3.59,2.37.99,1.02,1.76,2.24,2.27,3.64.54,1.42.79,2.98.79,4.68h0ZM351.36,139.42c0-2.31-.51-4.1-1.5-5.39-1.02-1.27-2.39-1.93-4.1-1.93-1.12,0-2.09.28-2.93.87-.84.58-1.5,1.42-1.94,2.54-.48,1.12-.69,2.42-.69,3.92s.2,2.77.66,3.87c.46,1.09,1.1,1.96,1.94,2.55.81.59,1.81.87,2.95.87,1.71,0,3.08-.64,4.1-1.93.99-1.27,1.5-3.08,1.5-5.35h0ZM400.81,143.51c0,1.55-.38,2.9-1.14,4.02-.76,1.09-1.88,1.93-3.39,2.52-1.47.56-3.28.87-5.42.87-2.01,0-3.77-.33-5.22-.94-1.45-.61-2.52-1.4-3.21-2.34-.69-.92-1.04-1.86-1.04-2.8,0-.61.23-1.15.66-1.58.46-.46,1.02-.66,1.68-.66.61,0,1.07.13,1.37.43.33.28.64.69.92,1.22.58.99,1.27,1.76,2.09,2.27.79.48,1.91.74,3.31.74,1.12,0,2.03-.25,2.77-.76.71-.48,1.1-1.07,1.1-1.73,0-.99-.38-1.71-1.15-2.16-.74-.46-1.99-.92-3.72-1.32-1.93-.48-3.54-.99-4.76-1.53-1.22-.53-2.19-1.22-2.93-2.11-.71-.87-1.1-1.93-1.1-3.21,0-1.14.33-2.21,1.02-3.21.69-1.02,1.68-1.83,3-2.42,1.3-.61,2.9-.92,4.76-.92,1.48,0,2.8.15,3.94.46,1.17.31,2.16.71,2.93,1.22.79.51,1.37,1.09,1.78,1.7.41.64.61,1.22.61,1.83s-.2,1.17-.64,1.58c-.43.43-1.07.63-1.86.63-.59,0-1.09-.18-1.5-.51-.38-.33-.87-.82-1.4-1.48-.41-.56-.92-.99-1.5-1.35-.59-.33-1.37-.48-2.37-.48s-1.86.23-2.55.66c-.66.43-1.02.97-1.02,1.63,0,.58.25,1.07.74,1.45.51.38,1.17.71,2.01.94.87.25,2.01.56,3.49.92,1.76.43,3.21.94,4.3,1.55,1.12.59,1.96,1.27,2.54,2.09.56.81.87,1.73.87,2.77h0Z"/>
</svg>
